<mxfile host="65bd71144e">
    <diagram id="GXSVwMT8EiFkRQCqkTA6" name="Page-1">
        <mxGraphModel dx="828" dy="571" grid="1" gridSize="10" guides="1" tooltips="1" connect="1" arrows="1" fold="1" page="1" pageScale="1" pageWidth="850" pageHeight="1100" math="0" shadow="0">
            <root>
                <mxCell id="0"/>
                <mxCell id="1" parent="0"/>
                <mxCell id="26" style="edgeStyle=none;html=1;exitX=0.5;exitY=0.5;exitDx=0;exitDy=0;exitPerimeter=0;entryX=0;entryY=0.5;entryDx=0;entryDy=0;fontSize=11;" parent="1" source="4" target="10" edge="1">
                    <mxGeometry relative="1" as="geometry"/>
                </mxCell>
                <mxCell id="4" value="Dentista&lt;br&gt;" style="shape=umlActor;verticalLabelPosition=bottom;verticalAlign=top;html=1;align=center;" parent="1" vertex="1">
                    <mxGeometry x="160" y="120" width="30" height="60" as="geometry"/>
                </mxCell>
                <mxCell id="27" style="edgeStyle=none;html=1;exitX=0.5;exitY=0.5;exitDx=0;exitDy=0;exitPerimeter=0;entryX=0;entryY=0.5;entryDx=0;entryDy=0;fontSize=11;" parent="1" source="5" target="13" edge="1">
                    <mxGeometry relative="1" as="geometry"/>
                </mxCell>
                <mxCell id="5" value="Asistente" style="shape=umlActor;verticalLabelPosition=bottom;verticalAlign=top;html=1;" parent="1" vertex="1">
                    <mxGeometry x="160" y="240" width="30" height="60" as="geometry"/>
                </mxCell>
                <mxCell id="28" style="edgeStyle=none;html=1;exitX=0.5;exitY=0.5;exitDx=0;exitDy=0;exitPerimeter=0;entryX=0;entryY=0.5;entryDx=0;entryDy=0;fontSize=11;" parent="1" source="6" target="12" edge="1">
                    <mxGeometry relative="1" as="geometry"/>
                </mxCell>
                <mxCell id="6" value="Recepcionista&lt;br&gt;" style="shape=umlActor;verticalLabelPosition=bottom;verticalAlign=top;html=1;" parent="1" vertex="1">
                    <mxGeometry x="160" y="350" width="30" height="60" as="geometry"/>
                </mxCell>
                <mxCell id="14" value="" style="swimlane;startSize=0;fontSize=7;html=1;" parent="1" vertex="1">
                    <mxGeometry x="225" y="120" width="135" height="320" as="geometry">
                        <mxRectangle x="225" y="120" width="50" height="40" as="alternateBounds"/>
                    </mxGeometry>
                </mxCell>
                <mxCell id="12" value="Receptionist authentication" style="ellipse;whiteSpace=wrap;html=1;fontSize=7;" parent="14" vertex="1">
                    <mxGeometry x="37.5" y="260" width="60" height="30" as="geometry"/>
                </mxCell>
                <mxCell id="10" value="Dentist authentication" style="ellipse;whiteSpace=wrap;html=1;fontSize=7;" parent="14" vertex="1">
                    <mxGeometry x="37.5" y="30" width="60" height="30" as="geometry"/>
                </mxCell>
                <mxCell id="13" value="Assistant Authentication" style="ellipse;whiteSpace=wrap;html=1;fontSize=7;" parent="14" vertex="1">
                    <mxGeometry x="37.5" y="145" width="60" height="30" as="geometry"/>
                </mxCell>
                <mxCell id="15" value="&lt;font style=&quot;font-size: 11px;&quot;&gt;Validation&lt;/font&gt;" style="text;strokeColor=none;fillColor=none;html=1;fontSize=24;fontStyle=1;verticalAlign=middle;align=center;" parent="1" vertex="1">
                    <mxGeometry x="243" y="90" width="100" height="40" as="geometry"/>
                </mxCell>
                <mxCell id="16" value="" style="swimlane;startSize=0;fontSize=11;html=1;" parent="1" vertex="1">
                    <mxGeometry x="210" y="90" width="440" height="380" as="geometry">
                        <mxRectangle x="210" y="90" width="50" height="40" as="alternateBounds"/>
                    </mxGeometry>
                </mxCell>
                <mxCell id="17" value="Patient history" style="ellipse;whiteSpace=wrap;html=1;fontSize=11;" parent="16" vertex="1">
                    <mxGeometry x="220" y="120" width="90" height="30" as="geometry"/>
                </mxCell>
                <mxCell id="48" style="edgeStyle=none;html=1;exitX=1;exitY=1;exitDx=0;exitDy=0;entryX=1;entryY=0.5;entryDx=0;entryDy=0;fontSize=8;" parent="16" source="19" target="23" edge="1">
                    <mxGeometry relative="1" as="geometry">
                        <Array as="points">
                            <mxPoint x="360" y="140"/>
                        </Array>
                    </mxGeometry>
                </mxCell>
                <mxCell id="49" value="generate" style="edgeLabel;html=1;align=center;verticalAlign=middle;resizable=0;points=[];fontSize=8;" parent="48" vertex="1" connectable="0">
                    <mxGeometry x="-0.3594" y="-1" relative="1" as="geometry">
                        <mxPoint x="14" y="19" as="offset"/>
                    </mxGeometry>
                </mxCell>
                <mxCell id="19" value="Quotes" style="ellipse;whiteSpace=wrap;html=1;fontSize=11;" parent="16" vertex="1">
                    <mxGeometry x="230" y="50" width="90" height="30" as="geometry"/>
                </mxCell>
                <mxCell id="23" value="Invoice" style="ellipse;whiteSpace=wrap;html=1;fontSize=11;" parent="16" vertex="1">
                    <mxGeometry x="220" y="200" width="90" height="30" as="geometry"/>
                </mxCell>
                <mxCell id="24" value="Appointments" style="ellipse;whiteSpace=wrap;html=1;fontSize=11;" parent="16" vertex="1">
                    <mxGeometry x="230" y="280" width="90" height="30" as="geometry"/>
                </mxCell>
                <mxCell id="33" style="edgeStyle=none;html=1;exitX=0.5;exitY=0.5;exitDx=0;exitDy=0;exitPerimeter=0;entryX=1;entryY=0.5;entryDx=0;entryDy=0;fontSize=8;" parent="1" source="21" target="19" edge="1">
                    <mxGeometry relative="1" as="geometry"/>
                </mxCell>
                <mxCell id="36" value="accept" style="edgeLabel;html=1;align=center;verticalAlign=middle;resizable=0;points=[];fontSize=8;" parent="33" vertex="1" connectable="0">
                    <mxGeometry x="0.102" y="-2" relative="1" as="geometry">
                        <mxPoint as="offset"/>
                    </mxGeometry>
                </mxCell>
                <mxCell id="53" style="edgeStyle=none;html=1;exitX=0.5;exitY=0.5;exitDx=0;exitDy=0;exitPerimeter=0;entryX=1;entryY=0.5;entryDx=0;entryDy=0;fontSize=8;" parent="1" source="21" target="24" edge="1">
                    <mxGeometry relative="1" as="geometry"/>
                </mxCell>
                <mxCell id="55" value="request" style="edgeLabel;html=1;align=center;verticalAlign=middle;resizable=0;points=[];fontSize=8;" parent="53" vertex="1" connectable="0">
                    <mxGeometry x="0.1256" y="1" relative="1" as="geometry">
                        <mxPoint as="offset"/>
                    </mxGeometry>
                </mxCell>
                <mxCell id="21" value="patient" style="shape=umlActor;verticalLabelPosition=bottom;verticalAlign=top;html=1;outlineConnect=0;fontSize=11;" parent="1" vertex="1">
                    <mxGeometry x="700" y="230" width="30" height="60" as="geometry"/>
                </mxCell>
                <mxCell id="31" style="edgeStyle=none;html=1;exitX=1;exitY=0.5;exitDx=0;exitDy=0;entryX=0;entryY=0.5;entryDx=0;entryDy=0;fontSize=8;" parent="1" source="10" target="19" edge="1">
                    <mxGeometry relative="1" as="geometry"/>
                </mxCell>
                <mxCell id="32" value="generate" style="edgeLabel;html=1;align=center;verticalAlign=middle;resizable=0;points=[];fontSize=8;" parent="31" vertex="1" connectable="0">
                    <mxGeometry x="-0.1264" y="1" relative="1" as="geometry">
                        <mxPoint as="offset"/>
                    </mxGeometry>
                </mxCell>
                <mxCell id="37" style="edgeStyle=none;html=1;exitX=1;exitY=0.5;exitDx=0;exitDy=0;entryX=0.048;entryY=0.703;entryDx=0;entryDy=0;fontSize=8;entryPerimeter=0;" parent="1" source="13" target="17" edge="1">
                    <mxGeometry relative="1" as="geometry"/>
                </mxCell>
                <mxCell id="38" value="modify" style="edgeLabel;html=1;align=center;verticalAlign=middle;resizable=0;points=[];fontSize=8;" parent="37" vertex="1" connectable="0">
                    <mxGeometry x="-0.3374" relative="1" as="geometry">
                        <mxPoint x="-1" as="offset"/>
                    </mxGeometry>
                </mxCell>
                <mxCell id="29" style="edgeStyle=none;html=1;fontSize=11;entryX=0;entryY=0.5;entryDx=0;entryDy=0;exitX=1;exitY=0.5;exitDx=0;exitDy=0;" parent="1" source="10" target="17" edge="1">
                    <mxGeometry relative="1" as="geometry">
                        <mxPoint x="318" y="165" as="sourcePoint"/>
                        <mxPoint x="425.5" y="135" as="targetPoint"/>
                    </mxGeometry>
                </mxCell>
                <mxCell id="30" value="&lt;font style=&quot;font-size: 8px;&quot;&gt;create,modify,delete&lt;/font&gt;" style="edgeLabel;html=1;align=center;verticalAlign=middle;resizable=0;points=[];fontSize=11;" parent="29" vertex="1" connectable="0">
                    <mxGeometry x="0.382" y="2" relative="1" as="geometry">
                        <mxPoint x="-17" y="-4" as="offset"/>
                    </mxGeometry>
                </mxCell>
                <mxCell id="44" style="edgeStyle=none;html=1;exitX=0.746;exitY=0.083;exitDx=0;exitDy=0;entryX=0.204;entryY=0.936;entryDx=0;entryDy=0;entryPerimeter=0;fontSize=8;exitPerimeter=0;" parent="1" source="12" target="17" edge="1">
                    <mxGeometry relative="1" as="geometry"/>
                </mxCell>
                <mxCell id="45" value="modify" style="edgeLabel;html=1;align=center;verticalAlign=middle;resizable=0;points=[];fontSize=8;" parent="44" vertex="1" connectable="0">
                    <mxGeometry x="-0.7409" relative="1" as="geometry">
                        <mxPoint x="54" y="-60" as="offset"/>
                    </mxGeometry>
                </mxCell>
                <mxCell id="46" style="edgeStyle=none;html=1;exitX=1;exitY=0.5;exitDx=0;exitDy=0;entryX=0;entryY=0.5;entryDx=0;entryDy=0;fontSize=8;" parent="1" source="12" target="23" edge="1">
                    <mxGeometry relative="1" as="geometry"/>
                </mxCell>
                <mxCell id="47" value="print, collect" style="edgeLabel;html=1;align=center;verticalAlign=middle;resizable=0;points=[];fontSize=8;" parent="46" vertex="1" connectable="0">
                    <mxGeometry x="-0.5148" y="-2" relative="1" as="geometry">
                        <mxPoint x="32" y="-37" as="offset"/>
                    </mxGeometry>
                </mxCell>
                <mxCell id="51" style="edgeStyle=none;html=1;exitX=1;exitY=0.5;exitDx=0;exitDy=0;entryX=0;entryY=0.5;entryDx=0;entryDy=0;fontSize=8;" parent="1" source="12" target="24" edge="1">
                    <mxGeometry relative="1" as="geometry"/>
                </mxCell>
                <mxCell id="52" value="create" style="edgeLabel;html=1;align=center;verticalAlign=middle;resizable=0;points=[];fontSize=8;" parent="51" vertex="1" connectable="0">
                    <mxGeometry x="-0.1608" y="-1" relative="1" as="geometry">
                        <mxPoint as="offset"/>
                    </mxGeometry>
                </mxCell>
                <mxCell id="56" value="Text" style="text;html=1;align=center;verticalAlign=middle;resizable=0;points=[];autosize=1;strokeColor=none;fillColor=none;" vertex="1" parent="1">
                    <mxGeometry x="45" y="45" width="50" height="30" as="geometry"/>
                </mxCell>
            </root>
        </mxGraphModel>
    </diagram>
</mxfile>